<?xml version="1.0" encoding="UTF-8"?>
<svg id="Layer_1" data-name="Layer 1" xmlns="http://www.w3.org/2000/svg" viewBox="0 0 3109.56 2600.88">
  <defs>
    <style>
      .cls-1, .cls-2 {
        fill: #4355a5;
      }

      .cls-3 {
        font-size: 716.31px;
      }

      .cls-3, .cls-4, .cls-5 {
        fill: #ed697c;
      }

      .cls-3, .cls-5, .cls-2 {
        font-family: BerlinSansFB-Reg, 'Berlin Sans FB';
      }

      .cls-6 {
        fill: #a7a9ac;
      }

      .cls-7 {
        fill: #ed697b;
      }

      .cls-8 {
        fill: #fff;
        stroke: #231f20;
        stroke-miterlimit: 10;
      }

      .cls-5 {
        font-size: 205.25px;
      }

      .cls-2 {
        font-size: 318.13px;
      }

      .cls-9 {
        fill: #eb6c7c;
      }
    </style>
  </defs>
  <rect class="cls-8" x="0" y="0" width="3109.56" height="2600.88"/>
  <g>
    <text class="cls-5" transform="translate(967.75 1640.72) scale(.93 1)"><tspan x="0" y="0">Pink</tspan></text>
    <text class="cls-3" transform="translate(381.59 2071.79) scale(.93 1)"><tspan x="0" y="0">F amingo</tspan></text>
    <text class="cls-2" transform="translate(967.75 2346.47) scale(.93 1)"><tspan x="0" y="0">Travels</tspan></text>
    <path class="cls-4" d="m859.68,1795.06c7.33-186.69,84.04-433.98,309.08-417.64,72.05-1.24,142.9-10.44,211.34-25.78,143.94-32.25,218.02-169.11,125.68-329.66-77.95-163.71-482.86-424.26-192.31-571.33,24.75-8.19,55.09-9.79,22.97-47.07-17.93-39.43,56.67-55.6,79.14-78.49-2.23-33.51-107.65-12.27-134.33-11.95-144.27,26.63-199.83,175.58-175.4,307.22,22.52,171.63,183.91,261.97,270.71,398.19,43.52,63.82,88.54,187.65-15.54,215.9-237.21,50.15-482.24,31.99-541.89,329.39-67.22,314.48-13.54,636.83,3.79,954.16,12.39-.46,6.89-.26,19.28-.72,4.97-231.27-7.44-494.04,17.47-722.21Z"/>
    <path class="cls-7" d="m742.2,1499.99c100.02-188.27,274.71-307.28,484-338.01,122.49,2.69,121.52-131.77-12.15-133.5-244.47.66-491.92,224.53-471.85,471.51Z"/>
    <path class="cls-6" d="m1598.23,635.98c59.58-93.96,15.21-196.46-57.86-259.83-98.15-85.55-276.32,25.32-105.93,104.64q106.86,55.02,163.79,155.19Z"/>
    <path class="cls-9" d="m1104.17,991.89c-86.48-66.23-255.24,5.68-323.6,76.25-40.7,31.74,5.3,89.46,43.96,55.27,79.31-69.14,170.65-113.27,279.64-131.52Z"/>
    <path class="cls-1" d="m1576.11,598.45c6.85,12.92,15.79,24.32,21.67,37.79,10.7-14.98,20.66-34,24.25-52.19,3.2-16.24,5.97-34.97,5.12-51.55-1.1-21.47-9.94-50.19-21.53-68.15-2.37-3.67-5.4-7.74-9.76-7.93-4.57-.2-8.12,4.09-9.68,8.39-3.15,8.66-2.29,26.72-8.88,32.76-7.44,6.82-19.54,6.99-27.58,14.39-11.81,10.87-13.27,20.86-8.17,34.97.52,1.43,1.49,2.63,2.44,3.82,11.72,14.63,23.38,31.21,32.13,47.71Z"/>
    <path class="cls-1" d="m1936.14,1616.78c2.59,1.31,4.29,3.85,5.87,6.28,2.65,4.07,5.3,8.13,7.94,12.2,1,1.54,2.02,3.1,2.64,4.83,1.8,4.99,2.39,12.57,2.38,17.88,0,4.73-.7,9.52-2.72,13.8-1.41,2.99-3.42,5.65-5.52,8.2-11.26,13.71-23.88,17.7-41.35,18.78-10.54.65-18.32-4.4-26.96-9.68-2.05-1.26-4.12-2.52-5.95-4.08-11.47-9.77-17.13-35.21-10.98-49.01,1.06-2.39,2.32-4.69,3.73-6.9,2.42-3.77,5.32-7.24,8.6-10.3,2.77-2.58,6.36-5.2,9.62-7.12,9.49-5.6,19.73-6.64,30.43-5.05,7.97,1.18,15.18,6.57,22.26,10.15Z"/>
  </g>
</svg>