<?xml version="1.0" encoding="UTF-8"?>
<svg id="Layer_1" data-name="Layer 1" xmlns="http://www.w3.org/2000/svg" viewBox="0 0 5000 5000">
  <defs>
    <style>
      .cls-1, .cls-2 {
        fill: #4355a5;
      }

      .cls-3 {
        fill: #a7a9ac;
      }

      .cls-4 {
        fill: #ed697b;
      }

      .cls-5, .cls-6, .cls-7 {
        fill: #ed697c;
      }

      .cls-6 {
        font-size: 386.99px;
      }

      .cls-6, .cls-2, .cls-7 {
        font-family: BerlinSansFB-Reg, 'Berlin Sans FB';
      }

      .cls-2 {
        font-size: 599.81px;
      }

      .cls-7 {
        font-size: 1257.6px;
      }

      .cls-8 {
        fill: #eb6c7c;
      }
    </style>
  </defs>
  <text class="cls-6" transform="translate(1477.37 2853.87) scale(.93 1)"><tspan x="0" y="0">Pink</tspan></text>
  <text class="cls-7" transform="translate(372.21 3666.62) scale(.93 1)"><tspan x="0" y="0">F amingo</tspan></text>
  <text class="cls-2" transform="translate(1477.37 4184.5) scale(.93 1)"><tspan x="0" y="0">Travels</tspan></text>
  <path class="cls-5" d="m1273.63,3144.86c13.82-352,158.45-818.24,582.75-787.43,135.85-2.33,269.42-19.69,398.47-48.6,271.38-60.8,411.05-318.85,236.97-621.55-146.96-308.66-910.4-799.91-362.59-1077.2,46.66-15.44,103.87-18.47,43.31-88.76-33.8-74.34,106.84-104.83,149.22-147.99-4.2-63.18-202.96-23.14-253.27-22.54-272.01,50.21-376.77,331.05-330.7,579.24,42.45,323.59,346.75,493.93,510.4,750.76,82.06,120.32,166.93,353.81-29.3,407.06-447.24,94.56-909.23,60.32-1021.7,621.05-126.73,592.94-25.53,1200.7,7.15,1799,23.37-.87,12.99-.48,36.36-1.35,9.36-436.04-14.03-931.47,32.93-1361.68Z"/>
  <path class="cls-4" d="m1052.13,2588.54c188.57-354.97,517.95-579.36,912.55-637.29,230.95,5.07,229.12-248.44-22.91-251.7-460.92,1.24-927.48,423.33-889.64,888.99Z"/>
  <path class="cls-3" d="m2666.11,959.5c112.33-177.16,28.68-370.41-109.08-489.89-185.06-161.29-520.98,47.74-199.73,197.3q201.47,103.74,308.81,292.59Z"/>
  <path class="cls-8" d="m1734.59,1630.54c-163.06-124.88-481.24,10.71-610.12,143.76-76.73,59.84,10,168.68,82.88,104.21,149.54-130.35,321.74-213.55,527.24-247.96Z"/>
  <path class="cls-1" d="m2624.4,888.73c12.92,24.35,29.77,45.86,40.85,71.24,20.18-28.25,38.95-64.11,45.71-98.39,6.04-30.62,11.26-65.93,9.65-97.2-2.08-40.47-18.74-94.63-40.59-128.5-4.46-6.92-10.17-14.59-18.39-14.95-8.62-.38-15.3,7.71-18.26,15.82-5.95,16.32-4.32,50.37-16.75,61.77-14.04,12.87-36.85,13.17-52.01,27.13-22.27,20.5-25.01,39.33-15.4,65.94.97,2.69,2.81,4.96,4.6,7.2,22.1,27.59,44.08,58.85,60.58,89.95Z"/>
  <path class="cls-1" d="m3122.25,2874.28c4.88,2.47,8.09,7.26,11.07,11.84,4.99,7.67,9.98,15.34,14.98,23.01,1.89,2.91,3.8,5.85,4.98,9.11,3.39,9.42,4.5,23.69,4.49,33.71,0,8.91-1.33,17.95-5.12,26.01-2.65,5.64-6.45,10.66-10.4,15.47-21.23,25.84-45.03,33.36-77.95,35.41-19.87,1.23-34.54-8.29-50.82-18.25-3.87-2.37-7.76-4.75-11.22-7.69-21.63-18.41-32.29-66.39-20.71-92.4,2.01-4.51,4.37-8.85,7.03-13,4.57-7.11,10.02-13.65,16.21-19.41,5.22-4.87,11.99-9.8,18.13-13.42,17.89-10.56,37.2-12.52,57.37-9.52,15.02,2.23,28.62,12.39,41.96,19.14Z"/>
</svg>